<?xml version="1.0" encoding="utf-8" standalone="no"?>
<!DOCTYPE svg PUBLIC "-//W3C//DTD SVG 1.1//EN"
  "http://www.w3.org/Graphics/SVG/1.1/DTD/svg11.dtd">
<svg xmlns:xlink="http://www.w3.org/1999/xlink" width="1101.6pt" height="1103.971197pt" viewBox="0 0 1101.6 1103.971197" xmlns="http://www.w3.org/2000/svg" version="1.1">
 <metadata>
  <rdf:RDF xmlns:dc="http://purl.org/dc/elements/1.1/" xmlns:cc="http://creativecommons.org/ns#" xmlns:rdf="http://www.w3.org/1999/02/22-rdf-syntax-ns#">
   <cc:Work>
    <dc:type rdf:resource="http://purl.org/dc/dcmitype/StillImage"/>
    <dc:date>2022-05-16T14:43:10.554927</dc:date>
    <dc:format>image/svg+xml</dc:format>
    <dc:creator>
     <cc:Agent>
      <dc:title>Matplotlib v3.5.1, https://matplotlib.org/</dc:title>
     </cc:Agent>
    </dc:creator>
   </cc:Work>
  </rdf:RDF>
 </metadata>
 <defs>
  <style type="text/css">*{stroke-linejoin: round; stroke-linecap: butt}</style>
 </defs>
 <g id="figure_1">
  <g id="patch_1">
   <path d="M 0 1103.971197 
L 1101.6 1103.971197 
L 1101.6 0 
L 0 0 
L 0 1103.971197 
z
" style="fill: none"/>
  </g>
  <g id="patch_2">
   <path d="M 7.2 1094.4 
L 1094.4 1094.4 
L 1094.4 7.2 
L 7.2 7.2 
z
" style="fill: #ffffff"/>
  </g>
  <g id="pane3d_1">
   <g id="patch_3">
    <path d="M 565.491892 429.069667 
L 1046.393727 731.477564 
L 1074.808924 329.194796 
L 565.491892 35.075791 
" style="fill: #f2f2f2; opacity: 0.5; stroke: #f2f2f2; stroke-linejoin: miter"/>
   </g>
  </g>
  <g id="pane3d_2">
   <g id="patch_4">
    <path d="M 565.491892 429.069667 
L 84.590057 731.477564 
L 56.17486 329.194796 
L 565.491892 35.075791 
" style="fill: #e6e6e6; opacity: 0.5; stroke: #e6e6e6; stroke-linejoin: miter"/>
   </g>
  </g>
  <g id="pane3d_3">
   <g id="patch_5">
    <path d="M 565.491892 429.069667 
L 84.590057 731.477564 
L 565.491892 1074.334744 
L 1046.393727 731.477564 
" style="fill: #ececec; opacity: 0.5; stroke: #ececec; stroke-linejoin: miter"/>
   </g>
  </g>
  <g id="axis3d_1">
   <g id="line2d_1">
    <path d="M 1046.393727 731.477564 
L 565.491892 1074.334744 
" style="fill: none; stroke: #000000; stroke-width: 0.8; stroke-linecap: square"/>
   </g>
   <g id="text_1">
    <!-- Вера -->
    <g transform="translate(812.785405 934.348208)scale(0.18 -0.18)">
     <defs>
      <path id="DejaVuSans-412" d="M 1259 2228 
L 1259 519 
L 2272 519 
Q 2781 519 3026 730 
Q 3272 941 3272 1375 
Q 3272 1813 3026 2020 
Q 2781 2228 2272 2228 
L 1259 2228 
z
M 1259 4147 
L 1259 2741 
L 2194 2741 
Q 2656 2741 2882 2914 
Q 3109 3088 3109 3444 
Q 3109 3797 2882 3972 
Q 2656 4147 2194 4147 
L 1259 4147 
z
M 628 4666 
L 2241 4666 
Q 2963 4666 3353 4366 
Q 3744 4066 3744 3513 
Q 3744 3084 3544 2831 
Q 3344 2578 2956 2516 
Q 3422 2416 3680 2098 
Q 3938 1781 3938 1306 
Q 3938 681 3513 340 
Q 3088 0 2303 0 
L 628 0 
L 628 4666 
z
" transform="scale(0.015625)"/>
      <path id="DejaVuSans-435" d="M 3597 1894 
L 3597 1613 
L 953 1613 
Q 991 1019 1311 708 
Q 1631 397 2203 397 
Q 2534 397 2845 478 
Q 3156 559 3463 722 
L 3463 178 
Q 3153 47 2828 -22 
Q 2503 -91 2169 -91 
Q 1331 -91 842 396 
Q 353 884 353 1716 
Q 353 2575 817 3079 
Q 1281 3584 2069 3584 
Q 2775 3584 3186 3129 
Q 3597 2675 3597 1894 
z
M 3022 2063 
Q 3016 2534 2758 2815 
Q 2500 3097 2075 3097 
Q 1594 3097 1305 2825 
Q 1016 2553 972 2059 
L 3022 2063 
z
" transform="scale(0.015625)"/>
      <path id="DejaVuSans-440" d="M 1159 525 
L 1159 -1331 
L 581 -1331 
L 581 3500 
L 1159 3500 
L 1159 2969 
Q 1341 3281 1617 3432 
Q 1894 3584 2278 3584 
Q 2916 3584 3314 3078 
Q 3713 2572 3713 1747 
Q 3713 922 3314 415 
Q 2916 -91 2278 -91 
Q 1894 -91 1617 61 
Q 1341 213 1159 525 
z
M 3116 1747 
Q 3116 2381 2855 2742 
Q 2594 3103 2138 3103 
Q 1681 3103 1420 2742 
Q 1159 2381 1159 1747 
Q 1159 1113 1420 752 
Q 1681 391 2138 391 
Q 2594 391 2855 752 
Q 3116 1113 3116 1747 
z
" transform="scale(0.015625)"/>
      <path id="DejaVuSans-430" d="M 2194 1759 
Q 1497 1759 1228 1600 
Q 959 1441 959 1056 
Q 959 750 1161 570 
Q 1363 391 1709 391 
Q 2188 391 2477 730 
Q 2766 1069 2766 1631 
L 2766 1759 
L 2194 1759 
z
M 3341 1997 
L 3341 0 
L 2766 0 
L 2766 531 
Q 2569 213 2275 61 
Q 1981 -91 1556 -91 
Q 1019 -91 701 211 
Q 384 513 384 1019 
Q 384 1609 779 1909 
Q 1175 2209 1959 2209 
L 2766 2209 
L 2766 2266 
Q 2766 2663 2505 2880 
Q 2244 3097 1772 3097 
Q 1472 3097 1187 3025 
Q 903 2953 641 2809 
L 641 3341 
Q 956 3463 1253 3523 
Q 1550 3584 1831 3584 
Q 2591 3584 2966 3190 
Q 3341 2797 3341 1997 
z
" transform="scale(0.015625)"/>
     </defs>
     <use xlink:href="#DejaVuSans-412"/>
     <use xlink:href="#DejaVuSans-435" x="68.603516"/>
     <use xlink:href="#DejaVuSans-440" x="130.126953"/>
     <use xlink:href="#DejaVuSans-430" x="193.603516"/>
    </g>
   </g>
   <g id="Line3DCollection_1">
    <path d="M 1037.367292 737.912926 
L 556.430519 434.767776 
L 555.927814 40.598829 
" style="fill: none; stroke: #b0b0b0; stroke-width: 0.8"/>
    <path d="M 949.546429 800.524485 
L 468.339711 490.162357 
L 462.884635 94.329149 
" style="fill: none; stroke: #b0b0b0; stroke-width: 0.8"/>
    <path d="M 859.556654 864.682362 
L 378.204791 546.842348 
L 367.559711 149.377125 
" style="fill: none; stroke: #b0b0b0; stroke-width: 0.8"/>
    <path d="M 767.316614 930.444556 
L 285.953776 604.853013 
L 269.868066 205.791829 
" style="fill: none; stroke: #b0b0b0; stroke-width: 0.8"/>
    <path d="M 672.740837 997.872007 
L 191.511261 664.241771 
L 169.72045 263.6248 
" style="fill: none; stroke: #b0b0b0; stroke-width: 0.8"/>
    <path d="M 575.739463 1067.028776 
L 94.798215 725.058317 
L 67.02307 322.930202 
" style="fill: none; stroke: #b0b0b0; stroke-width: 0.8"/>
   </g>
   <g id="xtick_1">
    <g id="line2d_2">
     <path d="M 1033.280362 735.336843 
L 1045.553478 743.072861 
" style="fill: none; stroke: #000000; stroke-width: 0.8; stroke-linecap: square"/>
    </g>
    <g id="text_2">
     <!-- 0.0 -->
     <g transform="translate(1035.286414 763.572145)scale(0.15 -0.15)">
      <defs>
       <path id="DejaVuSans-30" d="M 2034 4250 
Q 1547 4250 1301 3770 
Q 1056 3291 1056 2328 
Q 1056 1369 1301 889 
Q 1547 409 2034 409 
Q 2525 409 2770 889 
Q 3016 1369 3016 2328 
Q 3016 3291 2770 3770 
Q 2525 4250 2034 4250 
z
M 2034 4750 
Q 2819 4750 3233 4129 
Q 3647 3509 3647 2328 
Q 3647 1150 3233 529 
Q 2819 -91 2034 -91 
Q 1250 -91 836 529 
Q 422 1150 422 2328 
Q 422 3509 836 4129 
Q 1250 4750 2034 4750 
z
" transform="scale(0.015625)"/>
       <path id="DejaVuSans-2e" d="M 684 794 
L 1344 794 
L 1344 0 
L 684 0 
L 684 794 
z
" transform="scale(0.015625)"/>
      </defs>
      <use xlink:href="#DejaVuSans-30"/>
      <use xlink:href="#DejaVuSans-2e" x="63.623047"/>
      <use xlink:href="#DejaVuSans-30" x="95.410156"/>
     </g>
    </g>
   </g>
   <g id="xtick_2">
    <g id="line2d_3">
     <path d="M 945.454284 797.88519 
L 957.74321 805.811133 
" style="fill: none; stroke: #000000; stroke-width: 0.8; stroke-linecap: square"/>
    </g>
    <g id="text_3">
     <!-- 0.2 -->
     <g transform="translate(947.573208 826.366577)scale(0.15 -0.15)">
      <defs>
       <path id="DejaVuSans-32" d="M 1228 531 
L 3431 531 
L 3431 0 
L 469 0 
L 469 531 
Q 828 903 1448 1529 
Q 2069 2156 2228 2338 
Q 2531 2678 2651 2914 
Q 2772 3150 2772 3378 
Q 2772 3750 2511 3984 
Q 2250 4219 1831 4219 
Q 1534 4219 1204 4116 
Q 875 4013 500 3803 
L 500 4441 
Q 881 4594 1212 4672 
Q 1544 4750 1819 4750 
Q 2544 4750 2975 4387 
Q 3406 4025 3406 3419 
Q 3406 3131 3298 2873 
Q 3191 2616 2906 2266 
Q 2828 2175 2409 1742 
Q 1991 1309 1228 531 
z
" transform="scale(0.015625)"/>
      </defs>
      <use xlink:href="#DejaVuSans-30"/>
      <use xlink:href="#DejaVuSans-2e" x="63.623047"/>
      <use xlink:href="#DejaVuSans-32" x="95.410156"/>
     </g>
    </g>
   </g>
   <g id="xtick_3">
    <g id="line2d_4">
     <path d="M 855.460281 861.977498 
L 867.762059 870.100448 
" style="fill: none; stroke: #000000; stroke-width: 0.8; stroke-linecap: square"/>
    </g>
    <g id="text_4">
     <!-- 0.4 -->
     <g transform="translate(857.693438 890.712066)scale(0.15 -0.15)">
      <defs>
       <path id="DejaVuSans-34" d="M 2419 4116 
L 825 1625 
L 2419 1625 
L 2419 4116 
z
M 2253 4666 
L 3047 4666 
L 3047 1625 
L 3713 1625 
L 3713 1100 
L 3047 1100 
L 3047 0 
L 2419 0 
L 2419 1100 
L 313 1100 
L 313 1709 
L 2253 4666 
z
" transform="scale(0.015625)"/>
      </defs>
      <use xlink:href="#DejaVuSans-30"/>
      <use xlink:href="#DejaVuSans-2e" x="63.623047"/>
      <use xlink:href="#DejaVuSans-34" x="95.410156"/>
     </g>
    </g>
   </g>
   <g id="xtick_4">
    <g id="line2d_5">
     <path d="M 763.21708 927.671651 
L 775.528511 935.999045 
" style="fill: none; stroke: #000000; stroke-width: 0.8; stroke-linecap: square"/>
    </g>
    <g id="text_5">
     <!-- 0.6 -->
     <g transform="translate(765.565826 956.666798)scale(0.15 -0.15)">
      <defs>
       <path id="DejaVuSans-36" d="M 2113 2584 
Q 1688 2584 1439 2293 
Q 1191 2003 1191 1497 
Q 1191 994 1439 701 
Q 1688 409 2113 409 
Q 2538 409 2786 701 
Q 3034 994 3034 1497 
Q 3034 2003 2786 2293 
Q 2538 2584 2113 2584 
z
M 3366 4563 
L 3366 3988 
Q 3128 4100 2886 4159 
Q 2644 4219 2406 4219 
Q 1781 4219 1451 3797 
Q 1122 3375 1075 2522 
Q 1259 2794 1537 2939 
Q 1816 3084 2150 3084 
Q 2853 3084 3261 2657 
Q 3669 2231 3669 1497 
Q 3669 778 3244 343 
Q 2819 -91 2113 -91 
Q 1303 -91 875 529 
Q 447 1150 447 2328 
Q 447 3434 972 4092 
Q 1497 4750 2381 4750 
Q 2619 4750 2861 4703 
Q 3103 4656 3366 4563 
z
" transform="scale(0.015625)"/>
      </defs>
      <use xlink:href="#DejaVuSans-30"/>
      <use xlink:href="#DejaVuSans-2e" x="63.623047"/>
      <use xlink:href="#DejaVuSans-36" x="95.410156"/>
     </g>
    </g>
   </g>
   <g id="xtick_5">
    <g id="line2d_6">
     <path d="M 668.639291 995.028458 
L 680.956924 1003.568114 
" style="fill: none; stroke: #000000; stroke-width: 0.8; stroke-linecap: square"/>
    </g>
    <g id="text_6">
     <!-- 0.8 -->
     <g transform="translate(671.10498 1024.291908)scale(0.15 -0.15)">
      <defs>
       <path id="DejaVuSans-38" d="M 2034 2216 
Q 1584 2216 1326 1975 
Q 1069 1734 1069 1313 
Q 1069 891 1326 650 
Q 1584 409 2034 409 
Q 2484 409 2743 651 
Q 3003 894 3003 1313 
Q 3003 1734 2745 1975 
Q 2488 2216 2034 2216 
z
M 1403 2484 
Q 997 2584 770 2862 
Q 544 3141 544 3541 
Q 544 4100 942 4425 
Q 1341 4750 2034 4750 
Q 2731 4750 3128 4425 
Q 3525 4100 3525 3541 
Q 3525 3141 3298 2862 
Q 3072 2584 2669 2484 
Q 3125 2378 3379 2068 
Q 3634 1759 3634 1313 
Q 3634 634 3220 271 
Q 2806 -91 2034 -91 
Q 1263 -91 848 271 
Q 434 634 434 1313 
Q 434 1759 690 2068 
Q 947 2378 1403 2484 
z
M 1172 3481 
Q 1172 3119 1398 2916 
Q 1625 2713 2034 2713 
Q 2441 2713 2670 2916 
Q 2900 3119 2900 3481 
Q 2900 3844 2670 4047 
Q 2441 4250 2034 4250 
Q 1625 4250 1398 4047 
Q 1172 3844 1172 3481 
z
" transform="scale(0.015625)"/>
      </defs>
      <use xlink:href="#DejaVuSans-30"/>
      <use xlink:href="#DejaVuSans-2e" x="63.623047"/>
      <use xlink:href="#DejaVuSans-38" x="95.410156"/>
     </g>
    </g>
   </g>
   <g id="xtick_6">
    <g id="line2d_7">
     <path d="M 571.637151 1064.111851 
L 583.957253 1072.871988 
" style="fill: none; stroke: #000000; stroke-width: 0.8; stroke-linecap: square"/>
    </g>
    <g id="text_7">
     <!-- 1.0 -->
     <g transform="translate(574.221124 1093.651665)scale(0.15 -0.15)">
      <defs>
       <path id="DejaVuSans-31" d="M 794 531 
L 1825 531 
L 1825 4091 
L 703 3866 
L 703 4441 
L 1819 4666 
L 2450 4666 
L 2450 531 
L 3481 531 
L 3481 0 
L 794 0 
L 794 531 
z
" transform="scale(0.015625)"/>
      </defs>
      <use xlink:href="#DejaVuSans-31"/>
      <use xlink:href="#DejaVuSans-2e" x="63.623047"/>
      <use xlink:href="#DejaVuSans-30" x="95.410156"/>
     </g>
    </g>
   </g>
  </g>
  <g id="axis3d_2">
   <g id="line2d_8">
    <path d="M 84.590057 731.477564 
L 565.491892 1074.334744 
" style="fill: none; stroke: #000000; stroke-width: 0.8; stroke-linecap: square"/>
   </g>
   <g id="text_8">
    <!-- Неверие -->
    <g transform="translate(259.601345 910.060843)rotate(-324.513171)scale(0.18 -0.18)">
     <defs>
      <path id="DejaVuSans-41d" d="M 628 4666 
L 1259 4666 
L 1259 2753 
L 3553 2753 
L 3553 4666 
L 4184 4666 
L 4184 0 
L 3553 0 
L 3553 2222 
L 1259 2222 
L 1259 0 
L 628 0 
L 628 4666 
z
" transform="scale(0.015625)"/>
      <path id="DejaVuSans-432" d="M 1156 1613 
L 1156 459 
L 1975 459 
Q 2369 459 2575 607 
Q 2781 756 2781 1038 
Q 2781 1319 2575 1466 
Q 2369 1613 1975 1613 
L 1156 1613 
z
M 1156 3041 
L 1156 2072 
L 1913 2072 
Q 2238 2072 2444 2201 
Q 2650 2331 2650 2563 
Q 2650 2794 2444 2917 
Q 2238 3041 1913 3041 
L 1156 3041 
z
M 581 3500 
L 1950 3500 
Q 2566 3500 2897 3275 
Q 3228 3050 3228 2634 
Q 3228 2313 3059 2123 
Q 2891 1934 2559 1888 
Q 2956 1813 3175 1575 
Q 3394 1338 3394 981 
Q 3394 513 3033 256 
Q 2672 0 2003 0 
L 581 0 
L 581 3500 
z
" transform="scale(0.015625)"/>
      <path id="DejaVuSans-438" d="M 3578 3500 
L 3578 0 
L 3006 0 
L 3006 2809 
L 1319 0 
L 581 0 
L 581 3500 
L 1153 3500 
L 1153 697 
L 2838 3500 
L 3578 3500 
z
" transform="scale(0.015625)"/>
     </defs>
     <use xlink:href="#DejaVuSans-41d"/>
     <use xlink:href="#DejaVuSans-435" x="75.195312"/>
     <use xlink:href="#DejaVuSans-432" x="136.71875"/>
     <use xlink:href="#DejaVuSans-435" x="195.654297"/>
     <use xlink:href="#DejaVuSans-440" x="257.177734"/>
     <use xlink:href="#DejaVuSans-438" x="320.654297"/>
     <use xlink:href="#DejaVuSans-435" x="385.644531"/>
    </g>
   </g>
   <g id="Line3DCollection_2">
    <path d="M 575.05597 40.598829 
L 574.553265 434.767776 
L 93.616491 737.912926 
" style="fill: none; stroke: #b0b0b0; stroke-width: 0.8"/>
    <path d="M 668.099149 94.329149 
L 662.644073 490.162357 
L 181.437355 800.524485 
" style="fill: none; stroke: #b0b0b0; stroke-width: 0.8"/>
    <path d="M 763.424073 149.377125 
L 752.778992 546.842348 
L 271.42713 864.682362 
" style="fill: none; stroke: #b0b0b0; stroke-width: 0.8"/>
    <path d="M 861.115718 205.791829 
L 845.030008 604.853013 
L 363.667169 930.444556 
" style="fill: none; stroke: #b0b0b0; stroke-width: 0.8"/>
    <path d="M 961.263334 263.6248 
L 939.472523 664.241771 
L 458.242947 997.872007 
" style="fill: none; stroke: #b0b0b0; stroke-width: 0.8"/>
    <path d="M 1063.960714 322.930202 
L 1036.185569 725.058317 
L 555.24432 1067.028776 
" style="fill: none; stroke: #b0b0b0; stroke-width: 0.8"/>
   </g>
   <g id="xtick_7">
    <g id="line2d_9">
     <path d="M 97.703421 735.336843 
L 85.430306 743.072861 
" style="fill: none; stroke: #000000; stroke-width: 0.8; stroke-linecap: square"/>
    </g>
    <g id="text_9">
     <!-- 0.0 -->
     <g transform="translate(71.842682 763.572145)scale(0.15 -0.15)">
      <use xlink:href="#DejaVuSans-30"/>
      <use xlink:href="#DejaVuSans-2e" x="63.623047"/>
      <use xlink:href="#DejaVuSans-30" x="95.410156"/>
     </g>
    </g>
   </g>
   <g id="xtick_8">
    <g id="line2d_10">
     <path d="M 185.529499 797.88519 
L 173.240574 805.811133 
" style="fill: none; stroke: #000000; stroke-width: 0.8; stroke-linecap: square"/>
    </g>
    <g id="text_10">
     <!-- 0.2 -->
     <g transform="translate(159.555888 826.366577)scale(0.15 -0.15)">
      <use xlink:href="#DejaVuSans-30"/>
      <use xlink:href="#DejaVuSans-2e" x="63.623047"/>
      <use xlink:href="#DejaVuSans-32" x="95.410156"/>
     </g>
    </g>
   </g>
   <g id="xtick_9">
    <g id="line2d_11">
     <path d="M 275.523502 861.977498 
L 263.221725 870.100448 
" style="fill: none; stroke: #000000; stroke-width: 0.8; stroke-linecap: square"/>
    </g>
    <g id="text_11">
     <!-- 0.4 -->
     <g transform="translate(249.435659 890.712066)scale(0.15 -0.15)">
      <use xlink:href="#DejaVuSans-30"/>
      <use xlink:href="#DejaVuSans-2e" x="63.623047"/>
      <use xlink:href="#DejaVuSans-34" x="95.410156"/>
     </g>
    </g>
   </g>
   <g id="xtick_10">
    <g id="line2d_12">
     <path d="M 367.766704 927.671651 
L 355.455272 935.999045 
" style="fill: none; stroke: #000000; stroke-width: 0.8; stroke-linecap: square"/>
    </g>
    <g id="text_12">
     <!-- 0.6 -->
     <g transform="translate(341.56327 956.666798)scale(0.15 -0.15)">
      <use xlink:href="#DejaVuSans-30"/>
      <use xlink:href="#DejaVuSans-2e" x="63.623047"/>
      <use xlink:href="#DejaVuSans-36" x="95.410156"/>
     </g>
    </g>
   </g>
   <g id="xtick_11">
    <g id="line2d_13">
     <path d="M 462.344493 995.028458 
L 450.02686 1003.568114 
" style="fill: none; stroke: #000000; stroke-width: 0.8; stroke-linecap: square"/>
    </g>
    <g id="text_13">
     <!-- 0.8 -->
     <g transform="translate(436.024117 1024.291908)scale(0.15 -0.15)">
      <use xlink:href="#DejaVuSans-30"/>
      <use xlink:href="#DejaVuSans-2e" x="63.623047"/>
      <use xlink:href="#DejaVuSans-38" x="95.410156"/>
     </g>
    </g>
   </g>
   <g id="xtick_12">
    <g id="line2d_14">
     <path d="M 559.346633 1064.111851 
L 547.026531 1072.871988 
" style="fill: none; stroke: #000000; stroke-width: 0.8; stroke-linecap: square"/>
    </g>
    <g id="text_14">
     <!-- 1.0 -->
     <g transform="translate(532.907972 1093.651665)scale(0.15 -0.15)">
      <use xlink:href="#DejaVuSans-31"/>
      <use xlink:href="#DejaVuSans-2e" x="63.623047"/>
      <use xlink:href="#DejaVuSans-30" x="95.410156"/>
     </g>
    </g>
   </g>
  </g>
  <g id="axis3d_3">
   <g id="line2d_15">
    <path d="M 84.590057 731.477564 
L 56.17486 329.194796 
" style="fill: none; stroke: #000000; stroke-width: 0.8; stroke-linecap: square"/>
   </g>
   <g id="text_15">
    <!-- Неопределённость -->
    <g transform="translate(15.757817 445.914445)rotate(-274.04037)scale(0.18 -0.18)">
     <defs>
      <path id="DejaVuSans-43e" d="M 1959 3097 
Q 1497 3097 1228 2736 
Q 959 2375 959 1747 
Q 959 1119 1226 758 
Q 1494 397 1959 397 
Q 2419 397 2687 759 
Q 2956 1122 2956 1747 
Q 2956 2369 2687 2733 
Q 2419 3097 1959 3097 
z
M 1959 3584 
Q 2709 3584 3137 3096 
Q 3566 2609 3566 1747 
Q 3566 888 3137 398 
Q 2709 -91 1959 -91 
Q 1206 -91 779 398 
Q 353 888 353 1747 
Q 353 2609 779 3096 
Q 1206 3584 1959 3584 
z
" transform="scale(0.015625)"/>
      <path id="DejaVuSans-43f" d="M 3603 3500 
L 3603 0 
L 3025 0 
L 3025 3041 
L 1159 3041 
L 1159 0 
L 581 0 
L 581 3500 
L 3603 3500 
z
" transform="scale(0.015625)"/>
      <path id="DejaVuSans-434" d="M 1384 459 
L 3053 459 
L 3053 3041 
L 1844 3041 
L 1844 2603 
Q 1844 1316 1475 628 
L 1384 459 
z
M 550 459 
Q 834 584 959 850 
Q 1266 1509 1266 2838 
L 1266 3500 
L 3631 3500 
L 3631 459 
L 4091 459 
L 4091 -884 
L 3631 -884 
L 3631 0 
L 794 0 
L 794 -884 
L 334 -884 
L 334 459 
L 550 459 
z
" transform="scale(0.015625)"/>
      <path id="DejaVuSans-43b" d="M 238 0 
L 238 478 
Q 806 566 981 959 
Q 1194 1513 1194 2928 
L 1194 3500 
L 3559 3500 
L 3559 0 
L 2984 0 
L 2984 3041 
L 1769 3041 
L 1769 2694 
Q 1769 1344 1494 738 
Q 1200 91 238 0 
z
" transform="scale(0.015625)"/>
      <path id="DejaVuSans-451" d="M 3597 1894 
L 3597 1613 
L 953 1613 
Q 991 1019 1311 708 
Q 1631 397 2203 397 
Q 2534 397 2845 478 
Q 3156 559 3463 722 
L 3463 178 
Q 3153 47 2828 -22 
Q 2503 -91 2169 -91 
Q 1331 -91 842 396 
Q 353 884 353 1716 
Q 353 2575 817 3079 
Q 1281 3584 2069 3584 
Q 2775 3584 3186 3129 
Q 3597 2675 3597 1894 
z
M 3022 2063 
Q 3016 2534 2758 2815 
Q 2500 3097 2075 3097 
Q 1594 3097 1305 2825 
Q 1016 2553 972 2059 
L 3022 2063 
z
M 2363 4850 
L 2997 4850 
L 2997 4219 
L 2363 4219 
L 2363 4850 
z
M 1141 4850 
L 1775 4850 
L 1775 4219 
L 1141 4219 
L 1141 4850 
z
" transform="scale(0.015625)"/>
      <path id="DejaVuSans-43d" d="M 581 3500 
L 1159 3500 
L 1159 2072 
L 3025 2072 
L 3025 3500 
L 3603 3500 
L 3603 0 
L 3025 0 
L 3025 1613 
L 1159 1613 
L 1159 0 
L 581 0 
L 581 3500 
z
" transform="scale(0.015625)"/>
      <path id="DejaVuSans-441" d="M 3122 3366 
L 3122 2828 
Q 2878 2963 2633 3030 
Q 2388 3097 2138 3097 
Q 1578 3097 1268 2742 
Q 959 2388 959 1747 
Q 959 1106 1268 751 
Q 1578 397 2138 397 
Q 2388 397 2633 464 
Q 2878 531 3122 666 
L 3122 134 
Q 2881 22 2623 -34 
Q 2366 -91 2075 -91 
Q 1284 -91 818 406 
Q 353 903 353 1747 
Q 353 2603 823 3093 
Q 1294 3584 2113 3584 
Q 2378 3584 2631 3529 
Q 2884 3475 3122 3366 
z
" transform="scale(0.015625)"/>
      <path id="DejaVuSans-442" d="M 188 3500 
L 3541 3500 
L 3541 3041 
L 2147 3041 
L 2147 0 
L 1581 0 
L 1581 3041 
L 188 3041 
L 188 3500 
z
" transform="scale(0.015625)"/>
      <path id="DejaVuSans-44c" d="M 2781 1038 
Q 2781 1319 2576 1466 
Q 2372 1613 1978 1613 
L 1159 1613 
L 1159 459 
L 1978 459 
Q 2372 459 2576 607 
Q 2781 756 2781 1038 
z
M 581 3500 
L 1159 3500 
L 1159 2072 
L 2003 2072 
Q 2672 2072 3033 1817 
Q 3394 1563 3394 1038 
Q 3394 513 3033 256 
Q 2672 0 2003 0 
L 581 0 
L 581 3500 
z
" transform="scale(0.015625)"/>
     </defs>
     <use xlink:href="#DejaVuSans-41d"/>
     <use xlink:href="#DejaVuSans-435" x="75.195312"/>
     <use xlink:href="#DejaVuSans-43e" x="136.71875"/>
     <use xlink:href="#DejaVuSans-43f" x="197.900391"/>
     <use xlink:href="#DejaVuSans-440" x="263.28125"/>
     <use xlink:href="#DejaVuSans-435" x="326.757812"/>
     <use xlink:href="#DejaVuSans-434" x="388.28125"/>
     <use xlink:href="#DejaVuSans-435" x="457.421875"/>
     <use xlink:href="#DejaVuSans-43b" x="518.945312"/>
     <use xlink:href="#DejaVuSans-451" x="582.861328"/>
     <use xlink:href="#DejaVuSans-43d" x="644.384766"/>
     <use xlink:href="#DejaVuSans-43d" x="709.765625"/>
     <use xlink:href="#DejaVuSans-43e" x="775.146484"/>
     <use xlink:href="#DejaVuSans-441" x="836.328125"/>
     <use xlink:href="#DejaVuSans-442" x="891.308594"/>
     <use xlink:href="#DejaVuSans-44c" x="949.560547"/>
    </g>
   </g>
   <g id="Line3DCollection_3">
    <path d="M 84.05286 723.872296 
L 565.491892 421.595634 
L 1046.930924 723.872296 
" style="fill: none; stroke: #b0b0b0; stroke-width: 0.8"/>
    <path d="M 78.83404 649.987844 
L 565.491892 349.037342 
L 1052.149744 649.987844 
" style="fill: none; stroke: #b0b0b0; stroke-width: 0.8"/>
    <path d="M 73.500836 574.484016 
L 565.491892 274.984584 
L 1057.482948 574.484016 
" style="fill: none; stroke: #b0b0b0; stroke-width: 0.8"/>
    <path d="M 68.049445 497.306985 
L 565.491892 199.390708 
L 1062.934339 497.306985 
" style="fill: none; stroke: #b0b0b0; stroke-width: 0.8"/>
    <path d="M 62.475895 418.400506 
L 565.491892 122.207099 
L 1068.507889 418.400506 
" style="fill: none; stroke: #b0b0b0; stroke-width: 0.8"/>
    <path d="M 56.776033 337.70579 
L 565.491892 43.383076 
L 1074.207751 337.70579 
" style="fill: none; stroke: #b0b0b0; stroke-width: 0.8"/>
   </g>
   <g id="xtick_13">
    <g id="line2d_16">
     <path d="M 88.144025 721.303614 
L 75.858194 729.017405 
" style="fill: none; stroke: #000000; stroke-width: 0.8; stroke-linecap: square"/>
    </g>
    <g id="text_16">
     <!-- 0.0 -->
     <g transform="translate(52.570377 735.269952)scale(0.15 -0.15)">
      <use xlink:href="#DejaVuSans-30"/>
      <use xlink:href="#DejaVuSans-2e" x="63.623047"/>
      <use xlink:href="#DejaVuSans-30" x="95.410156"/>
     </g>
    </g>
   </g>
   <g id="xtick_14">
    <g id="line2d_17">
     <path d="M 82.972178 647.428808 
L 70.545151 655.113715 
" style="fill: none; stroke: #000000; stroke-width: 0.8; stroke-linecap: square"/>
    </g>
    <g id="text_17">
     <!-- 0.2 -->
     <g transform="translate(47.139578 661.3855)scale(0.15 -0.15)">
      <use xlink:href="#DejaVuSans-30"/>
      <use xlink:href="#DejaVuSans-2e" x="63.623047"/>
      <use xlink:href="#DejaVuSans-32" x="95.410156"/>
     </g>
    </g>
   </g>
   <g id="xtick_15">
    <g id="line2d_18">
     <path d="M 77.687035 571.935669 
L 65.115538 579.588564 
" style="fill: none; stroke: #000000; stroke-width: 0.8; stroke-linecap: square"/>
    </g>
    <g id="text_18">
     <!-- 0.4 -->
     <g transform="translate(41.58975 585.881673)scale(0.15 -0.15)">
      <use xlink:href="#DejaVuSans-30"/>
      <use xlink:href="#DejaVuSans-2e" x="63.623047"/>
      <use xlink:href="#DejaVuSans-34" x="95.410156"/>
     </g>
    </g>
   </g>
   <g id="xtick_16">
    <g id="line2d_19">
     <path d="M 72.284831 494.770429 
L 59.565478 502.387998 
" style="fill: none; stroke: #000000; stroke-width: 0.8; stroke-linecap: square"/>
    </g>
    <g id="text_19">
     <!-- 0.6 -->
     <g transform="translate(35.916934 508.704641)scale(0.15 -0.15)">
      <use xlink:href="#DejaVuSans-30"/>
      <use xlink:href="#DejaVuSans-2e" x="63.623047"/>
      <use xlink:href="#DejaVuSans-36" x="95.410156"/>
     </g>
    </g>
   </g>
   <g id="xtick_17">
    <g id="line2d_20">
     <path d="M 66.761633 415.876914 
L 53.890917 423.455641 
" style="fill: none; stroke: #000000; stroke-width: 0.8; stroke-linecap: square"/>
    </g>
    <g id="text_20">
     <!-- 0.8 -->
     <g transform="translate(30.116996 429.798162)scale(0.15 -0.15)">
      <use xlink:href="#DejaVuSans-30"/>
      <use xlink:href="#DejaVuSans-2e" x="63.623047"/>
      <use xlink:href="#DejaVuSans-38" x="95.410156"/>
     </g>
    </g>
   </g>
   <g id="xtick_18">
    <g id="line2d_21">
     <path d="M 61.11333 335.196403 
L 48.087618 342.732561 
" style="fill: none; stroke: #000000; stroke-width: 0.8; stroke-linecap: square"/>
    </g>
    <g id="text_21">
     <!-- 1.0 -->
     <g transform="translate(24.185617 349.103446)scale(0.15 -0.15)">
      <use xlink:href="#DejaVuSans-31"/>
      <use xlink:href="#DejaVuSans-2e" x="63.623047"/>
      <use xlink:href="#DejaVuSans-30" x="95.410156"/>
     </g>
    </g>
   </g>
  </g>
  <g id="axes_1">
   <g id="line2d_22">
    <path d="M 1027.673362 723.872296 
L 565.491892 54.451383 
L 565.491892 54.451383 
L 103.310421 723.872296 
L 103.310421 723.872296 
L 1027.673362 723.872296 
" clip-path="url(#p4e7660e423)" style="fill: none; stroke: #1f77b4; stroke-width: 1.5; stroke-linecap: square"/>
   </g>
   <g id="Path3DCollection_1">
    <defs>
     <path id="m61cfef9a51" d="M -5 5 
L 5 -5 
M -5 -5 
L 5 5 
" style="stroke: #ff0000; stroke-width: 1.5"/>
    </defs>
    <g clip-path="url(#p4e7660e423)">
     <use xlink:href="#m61cfef9a51" x="246.370823" y="557.298571" style="fill: #ff0000; stroke: #ff0000; stroke-width: 1.5"/>
    </g>
   </g>
   <g id="text_22">
    <!-- $\omega_{П(K_В)}^A$=(0.72, 0.03, 0.25) -->
    <g transform="translate(246.370823 557.298571)scale(0.23 -0.23)">
     <defs>
      <path id="DejaVuSans-Oblique-3c9" d="M 1369 -91 
Q 72 -91 434 1766 
Q 575 2500 1256 3500 
L 1875 3500 
Q 1231 2500 1088 1750 
Q 819 397 1519 397 
Q 2166 397 2478 2078 
L 3009 2078 
Q 2669 388 3316 397 
Q 4013 403 4275 1750 
Q 4419 2500 4169 3500 
L 4788 3500 
Q 5075 2500 4934 1766 
Q 4578 -94 3278 -91 
Q 2428 -88 2503 844 
Q 2194 -91 1369 -91 
z
" transform="scale(0.015625)"/>
      <path id="DejaVuSans-Oblique-41" d="M 2356 4666 
L 3072 4666 
L 3938 0 
L 3278 0 
L 3084 1197 
L 984 1197 
L 325 0 
L -341 0 
L 2356 4666 
z
M 2584 4044 
L 1275 1722 
L 2988 1722 
L 2584 4044 
z
" transform="scale(0.015625)"/>
      <path id="DejaVuSans-Oblique-41f" d="M 4638 4666 
L 3731 0 
L 3100 0 
L 3903 4134 
L 1609 4134 
L 806 0 
L 175 0 
L 1081 4666 
L 4638 4666 
z
" transform="scale(0.015625)"/>
      <path id="DejaVuSans-28" d="M 1984 4856 
Q 1566 4138 1362 3434 
Q 1159 2731 1159 2009 
Q 1159 1288 1364 580 
Q 1569 -128 1984 -844 
L 1484 -844 
Q 1016 -109 783 600 
Q 550 1309 550 2009 
Q 550 2706 781 3412 
Q 1013 4119 1484 4856 
L 1984 4856 
z
" transform="scale(0.015625)"/>
      <path id="DejaVuSans-Oblique-4b" d="M 1081 4666 
L 1716 4666 
L 1331 2700 
L 3781 4666 
L 4622 4666 
L 1850 2438 
L 3878 0 
L 3109 0 
L 1247 2272 
L 806 0 
L 172 0 
L 1081 4666 
z
" transform="scale(0.015625)"/>
      <path id="DejaVuSans-Oblique-412" d="M 1081 4666 
L 2694 4666 
Q 3350 4666 3675 4422 
Q 4000 4178 4000 3688 
Q 4000 3238 3720 2911 
Q 3441 2584 2988 2516 
Q 3375 2428 3569 2181 
Q 3763 1934 3763 1522 
Q 3763 819 3242 409 
Q 2722 0 1819 0 
L 172 0 
L 1081 4666 
z
M 1234 2228 
L 903 519 
L 1919 519 
Q 2491 519 2800 781 
Q 3109 1044 3109 1522 
Q 3109 1891 2904 2059 
Q 2700 2228 2247 2228 
L 1234 2228 
z
M 1606 4147 
L 1331 2741 
L 2272 2741 
Q 2775 2741 3058 2959 
Q 3341 3178 3341 3566 
Q 3341 3869 3150 4008 
Q 2959 4147 2541 4147 
L 1606 4147 
z
" transform="scale(0.015625)"/>
      <path id="DejaVuSans-29" d="M 513 4856 
L 1013 4856 
Q 1481 4119 1714 3412 
Q 1947 2706 1947 2009 
Q 1947 1309 1714 600 
Q 1481 -109 1013 -844 
L 513 -844 
Q 928 -128 1133 580 
Q 1338 1288 1338 2009 
Q 1338 2731 1133 3434 
Q 928 4138 513 4856 
z
" transform="scale(0.015625)"/>
      <path id="DejaVuSans-3d" d="M 678 2906 
L 4684 2906 
L 4684 2381 
L 678 2381 
L 678 2906 
z
M 678 1631 
L 4684 1631 
L 4684 1100 
L 678 1100 
L 678 1631 
z
" transform="scale(0.015625)"/>
      <path id="DejaVuSans-37" d="M 525 4666 
L 3525 4666 
L 3525 4397 
L 1831 0 
L 1172 0 
L 2766 4134 
L 525 4134 
L 525 4666 
z
" transform="scale(0.015625)"/>
      <path id="DejaVuSans-2c" d="M 750 794 
L 1409 794 
L 1409 256 
L 897 -744 
L 494 -744 
L 750 256 
L 750 794 
z
" transform="scale(0.015625)"/>
      <path id="DejaVuSans-20" transform="scale(0.015625)"/>
      <path id="DejaVuSans-33" d="M 2597 2516 
Q 3050 2419 3304 2112 
Q 3559 1806 3559 1356 
Q 3559 666 3084 287 
Q 2609 -91 1734 -91 
Q 1441 -91 1130 -33 
Q 819 25 488 141 
L 488 750 
Q 750 597 1062 519 
Q 1375 441 1716 441 
Q 2309 441 2620 675 
Q 2931 909 2931 1356 
Q 2931 1769 2642 2001 
Q 2353 2234 1838 2234 
L 1294 2234 
L 1294 2753 
L 1863 2753 
Q 2328 2753 2575 2939 
Q 2822 3125 2822 3475 
Q 2822 3834 2567 4026 
Q 2313 4219 1838 4219 
Q 1578 4219 1281 4162 
Q 984 4106 628 3988 
L 628 4550 
Q 988 4650 1302 4700 
Q 1616 4750 1894 4750 
Q 2613 4750 3031 4423 
Q 3450 4097 3450 3541 
Q 3450 3153 3228 2886 
Q 3006 2619 2597 2516 
z
" transform="scale(0.015625)"/>
      <path id="DejaVuSans-35" d="M 691 4666 
L 3169 4666 
L 3169 4134 
L 1269 4134 
L 1269 2991 
Q 1406 3038 1543 3061 
Q 1681 3084 1819 3084 
Q 2600 3084 3056 2656 
Q 3513 2228 3513 1497 
Q 3513 744 3044 326 
Q 2575 -91 1722 -91 
Q 1428 -91 1123 -41 
Q 819 9 494 109 
L 494 744 
Q 775 591 1075 516 
Q 1375 441 1709 441 
Q 2250 441 2565 725 
Q 2881 1009 2881 1497 
Q 2881 1984 2565 2268 
Q 2250 2553 1709 2553 
Q 1456 2553 1204 2497 
Q 953 2441 691 2322 
L 691 4666 
z
" transform="scale(0.015625)"/>
     </defs>
     <use xlink:href="#DejaVuSans-Oblique-3c9" transform="translate(0 0.684375)"/>
     <use xlink:href="#DejaVuSans-Oblique-41" transform="translate(88.20638 38.965625)scale(0.7)"/>
     <use xlink:href="#DejaVuSans-Oblique-41f" transform="translate(83.740234 -26.659375)scale(0.7)"/>
     <use xlink:href="#DejaVuSans-28" transform="translate(136.376953 -26.659375)scale(0.7)"/>
     <use xlink:href="#DejaVuSans-Oblique-4b" transform="translate(163.686523 -26.659375)scale(0.7)"/>
     <use xlink:href="#DejaVuSans-Oblique-412" transform="translate(209.589844 -38.14375)scale(0.49)"/>
     <use xlink:href="#DejaVuSans-29" transform="translate(245.119629 -26.659375)scale(0.7)"/>
     <use xlink:href="#DejaVuSans-3d" transform="translate(275.163574 0.684375)"/>
     <use xlink:href="#DejaVuSans-28" transform="translate(358.952637 0.684375)"/>
     <use xlink:href="#DejaVuSans-30" transform="translate(397.966309 0.684375)"/>
     <use xlink:href="#DejaVuSans-2e" transform="translate(461.589355 0.684375)"/>
     <use xlink:href="#DejaVuSans-37" transform="translate(485.626465 0.684375)"/>
     <use xlink:href="#DejaVuSans-32" transform="translate(549.249512 0.684375)"/>
     <use xlink:href="#DejaVuSans-2c" transform="translate(612.872559 0.684375)"/>
     <use xlink:href="#DejaVuSans-20" transform="translate(644.659668 0.684375)"/>
     <use xlink:href="#DejaVuSans-30" transform="translate(676.446777 0.684375)"/>
     <use xlink:href="#DejaVuSans-2e" transform="translate(740.069824 0.684375)"/>
     <use xlink:href="#DejaVuSans-30" transform="translate(771.856934 0.684375)"/>
     <use xlink:href="#DejaVuSans-33" transform="translate(835.47998 0.684375)"/>
     <use xlink:href="#DejaVuSans-2c" transform="translate(899.103027 0.684375)"/>
     <use xlink:href="#DejaVuSans-20" transform="translate(930.890137 0.684375)"/>
     <use xlink:href="#DejaVuSans-30" transform="translate(962.677246 0.684375)"/>
     <use xlink:href="#DejaVuSans-2e" transform="translate(1026.300293 0.684375)"/>
     <use xlink:href="#DejaVuSans-32" transform="translate(1052.587402 0.684375)"/>
     <use xlink:href="#DejaVuSans-35" transform="translate(1116.210449 0.684375)"/>
     <use xlink:href="#DejaVuSans-29" transform="translate(1179.833496 0.684375)"/>
    </g>
   </g>
   <g id="text_23">
    <!-- $\omega_{П(K_В)}^Б$=(0.95, 0.04, 0.01) -->
    <g transform="translate(144.934624 717.13417)scale(0.23 -0.23)">
     <defs>
      <path id="DejaVuSans-Oblique-411" d="M 3109 1606 
Q 3109 2228 2250 2228 
L 1238 2228 
L 906 519 
L 1919 519 
Q 2919 519 3084 1372 
Q 3109 1497 3109 1606 
z
M 4063 4666 
L 3963 4147 
L 1613 4147 
L 1341 2747 
L 2384 2747 
Q 3169 2747 3525 2406 
Q 3788 2159 3788 1725 
Q 3788 1563 3750 1372 
Q 3616 681 3125 340 
Q 2634 0 1850 0 
L 175 0 
L 1081 4666 
L 4063 4666 
z
" transform="scale(0.015625)"/>
      <path id="DejaVuSans-39" d="M 703 97 
L 703 672 
Q 941 559 1184 500 
Q 1428 441 1663 441 
Q 2288 441 2617 861 
Q 2947 1281 2994 2138 
Q 2813 1869 2534 1725 
Q 2256 1581 1919 1581 
Q 1219 1581 811 2004 
Q 403 2428 403 3163 
Q 403 3881 828 4315 
Q 1253 4750 1959 4750 
Q 2769 4750 3195 4129 
Q 3622 3509 3622 2328 
Q 3622 1225 3098 567 
Q 2575 -91 1691 -91 
Q 1453 -91 1209 -44 
Q 966 3 703 97 
z
M 1959 2075 
Q 2384 2075 2632 2365 
Q 2881 2656 2881 3163 
Q 2881 3666 2632 3958 
Q 2384 4250 1959 4250 
Q 1534 4250 1286 3958 
Q 1038 3666 1038 3163 
Q 1038 2656 1286 2365 
Q 1534 2075 1959 2075 
z
" transform="scale(0.015625)"/>
     </defs>
     <use xlink:href="#DejaVuSans-Oblique-3c9" transform="translate(0 0.684375)"/>
     <use xlink:href="#DejaVuSans-Oblique-411" transform="translate(88.20638 38.965625)scale(0.7)"/>
     <use xlink:href="#DejaVuSans-Oblique-41f" transform="translate(83.740234 -26.659375)scale(0.7)"/>
     <use xlink:href="#DejaVuSans-28" transform="translate(136.376953 -26.659375)scale(0.7)"/>
     <use xlink:href="#DejaVuSans-Oblique-4b" transform="translate(163.686523 -26.659375)scale(0.7)"/>
     <use xlink:href="#DejaVuSans-Oblique-412" transform="translate(209.589844 -38.14375)scale(0.49)"/>
     <use xlink:href="#DejaVuSans-29" transform="translate(245.119629 -26.659375)scale(0.7)"/>
     <use xlink:href="#DejaVuSans-3d" transform="translate(275.163574 0.684375)"/>
     <use xlink:href="#DejaVuSans-28" transform="translate(358.952637 0.684375)"/>
     <use xlink:href="#DejaVuSans-30" transform="translate(397.966309 0.684375)"/>
     <use xlink:href="#DejaVuSans-2e" transform="translate(461.589355 0.684375)"/>
     <use xlink:href="#DejaVuSans-39" transform="translate(493.376465 0.684375)"/>
     <use xlink:href="#DejaVuSans-35" transform="translate(556.999512 0.684375)"/>
     <use xlink:href="#DejaVuSans-2c" transform="translate(620.622559 0.684375)"/>
     <use xlink:href="#DejaVuSans-20" transform="translate(652.409668 0.684375)"/>
     <use xlink:href="#DejaVuSans-30" transform="translate(684.196777 0.684375)"/>
     <use xlink:href="#DejaVuSans-2e" transform="translate(747.819824 0.684375)"/>
     <use xlink:href="#DejaVuSans-30" transform="translate(779.606934 0.684375)"/>
     <use xlink:href="#DejaVuSans-34" transform="translate(843.22998 0.684375)"/>
     <use xlink:href="#DejaVuSans-2c" transform="translate(906.853027 0.684375)"/>
     <use xlink:href="#DejaVuSans-20" transform="translate(938.640137 0.684375)"/>
     <use xlink:href="#DejaVuSans-30" transform="translate(970.427246 0.684375)"/>
     <use xlink:href="#DejaVuSans-2e" transform="translate(1034.050293 0.684375)"/>
     <use xlink:href="#DejaVuSans-30" transform="translate(1065.837402 0.684375)"/>
     <use xlink:href="#DejaVuSans-31" transform="translate(1129.460449 0.684375)"/>
     <use xlink:href="#DejaVuSans-29" transform="translate(1193.083496 0.684375)"/>
    </g>
   </g>
   <g id="text_24">
    <!-- $\omega_{Рек(Б)}^A$=(0.8, 0, 0.2) -->
    <g transform="translate(196.236134 589.279242)scale(0.23 -0.23)">
     <defs>
      <path id="DejaVuSans-Oblique-420" d="M 1081 4666 
L 2541 4666 
Q 3178 4666 3512 4369 
Q 3847 4072 3847 3500 
Q 3847 2731 3353 2303 
Q 2859 1875 1966 1875 
L 1172 1875 
L 806 0 
L 172 0 
L 1081 4666 
z
M 1613 4147 
L 1275 2394 
L 2069 2394 
Q 2606 2394 2893 2669 
Q 3181 2944 3181 3456 
Q 3181 3784 2986 3965 
Q 2791 4147 2438 4147 
L 1613 4147 
z
" transform="scale(0.015625)"/>
      <path id="DejaVuSans-Oblique-435" d="M 3078 2063 
Q 3088 2113 3092 2166 
Q 3097 2219 3097 2272 
Q 3097 2653 2873 2875 
Q 2650 3097 2266 3097 
Q 1838 3097 1509 2826 
Q 1181 2556 1013 2059 
L 3078 2063 
z
M 3578 1613 
L 903 1613 
Q 884 1494 878 1425 
Q 872 1356 872 1306 
Q 872 872 1139 634 
Q 1406 397 1894 397 
Q 2269 397 2603 481 
Q 2938 566 3225 728 
L 3116 159 
Q 2806 34 2476 -28 
Q 2147 -91 1806 -91 
Q 1078 -91 686 257 
Q 294 606 294 1247 
Q 294 1794 489 2264 
Q 684 2734 1063 3103 
Q 1306 3334 1642 3459 
Q 1978 3584 2356 3584 
Q 2950 3584 3301 3228 
Q 3653 2872 3653 2272 
Q 3653 2128 3634 1964 
Q 3616 1800 3578 1613 
z
" transform="scale(0.015625)"/>
      <path id="DejaVuSans-Oblique-43a" d="M 922 3500 
L 1494 3500 
L 1175 1856 
L 3116 3500 
L 3822 3500 
L 2222 2147 
L 3313 0 
L 2669 0 
L 1772 1766 
L 1034 1141 
L 813 0 
L 241 0 
L 922 3500 
z
" transform="scale(0.015625)"/>
     </defs>
     <use xlink:href="#DejaVuSans-Oblique-3c9" transform="translate(0 0.684375)"/>
     <use xlink:href="#DejaVuSans-Oblique-41" transform="translate(88.20638 38.965625)scale(0.7)"/>
     <use xlink:href="#DejaVuSans-Oblique-420" transform="translate(83.740234 -26.659375)scale(0.7)"/>
     <use xlink:href="#DejaVuSans-Oblique-435" transform="translate(125.952148 -26.659375)scale(0.7)"/>
     <use xlink:href="#DejaVuSans-Oblique-43a" transform="translate(169.018555 -26.659375)scale(0.7)"/>
     <use xlink:href="#DejaVuSans-28" transform="translate(211.298828 -26.659375)scale(0.7)"/>
     <use xlink:href="#DejaVuSans-Oblique-411" transform="translate(238.608398 -26.659375)scale(0.7)"/>
     <use xlink:href="#DejaVuSans-29" transform="translate(286.630859 -26.659375)scale(0.7)"/>
     <use xlink:href="#DejaVuSans-3d" transform="translate(316.674805 0.684375)"/>
     <use xlink:href="#DejaVuSans-28" transform="translate(400.463867 0.684375)"/>
     <use xlink:href="#DejaVuSans-30" transform="translate(439.477539 0.684375)"/>
     <use xlink:href="#DejaVuSans-2e" transform="translate(503.100586 0.684375)"/>
     <use xlink:href="#DejaVuSans-38" transform="translate(532.262695 0.684375)"/>
     <use xlink:href="#DejaVuSans-2c" transform="translate(595.885742 0.684375)"/>
     <use xlink:href="#DejaVuSans-20" transform="translate(627.672852 0.684375)"/>
     <use xlink:href="#DejaVuSans-30" transform="translate(659.459961 0.684375)"/>
     <use xlink:href="#DejaVuSans-2c" transform="translate(723.083008 0.684375)"/>
     <use xlink:href="#DejaVuSans-20" transform="translate(754.870117 0.684375)"/>
     <use xlink:href="#DejaVuSans-30" transform="translate(786.657227 0.684375)"/>
     <use xlink:href="#DejaVuSans-2e" transform="translate(850.280273 0.684375)"/>
     <use xlink:href="#DejaVuSans-32" transform="translate(876.567383 0.684375)"/>
     <use xlink:href="#DejaVuSans-29" transform="translate(940.19043 0.684375)"/>
    </g>
   </g>
   <g id="Path3DCollection_2">
    <g clip-path="url(#p4e7660e423)">
     <use xlink:href="#m61cfef9a51" x="196.236134" y="589.279242" style="fill: #ff0000; stroke: #ff0000; stroke-width: 1.5"/>
    </g>
   </g>
   <g id="Path3DCollection_3">
    <g clip-path="url(#p4e7660e423)">
     <use xlink:href="#m61cfef9a51" x="144.934624" y="717.13417" style="fill: #ff0000; stroke: #ff0000; stroke-width: 1.5"/>
    </g>
   </g>
   <g id="Line3DCollection_4">
    <path d="M 288.916167 455.04203 
L 279.659192 468.449778 
L 288.843026 481.861073 
L 270.399768 481.861073 
L 279.583592 495.275914 
L 288.769846 508.694304 
L 261.137895 495.275914 
L 270.321709 508.694304 
L 279.507953 522.116244 
L 288.696627 535.541735 
L 251.873573 508.694304 
L 261.057376 522.116244 
L 270.243609 535.541735 
L 279.432274 548.970779 
L 288.62337 562.403377 
L 242.6068 522.116244 
L 251.790592 535.541735 
L 260.976814 548.970779 
L 270.165468 562.403377 
L 279.356554 575.839531 
L 288.550073 589.279242 
L 233.337574 535.541735 
L 242.521355 548.970779 
L 251.707567 562.403377 
L 260.89621 575.839531 
L 270.087286 589.279242 
L 279.280795 602.722511 
L 224.065896 548.970779 
L 233.249665 562.403377 
L 242.435866 575.839531 
L 251.624498 589.279242 
L 260.815563 602.722511 
L 270.009062 616.16934 
L 279.204995 629.61973 
L 288.403365 643.073683 
L 214.791764 562.403377 
L 223.975521 575.839531 
L 233.16171 589.279242 
L 242.350331 602.722511 
L 251.541385 616.16934 
L 260.734873 629.61973 
L 269.930796 643.073683 
L 279.129155 656.5312 
L 288.329952 669.992283 
L 205.515177 575.839531 
L 214.698922 589.279242 
L 223.885099 602.722511 
L 233.073708 616.16934 
L 242.26475 629.61973 
L 251.458228 643.073683 
L 260.65414 656.5312 
L 269.852489 669.992283 
L 279.053275 683.456932 
L 288.2565 696.92515 
L 196.236134 589.279242 
L 205.419867 602.722511 
L 214.606031 616.16934 
L 223.794628 629.61973 
L 232.985659 643.073683 
L 242.179125 656.5312 
L 251.375026 669.992283 
L 260.573365 683.456932 
L 269.774141 696.92515 
L 278.977355 710.396937 
L 288.18301 723.872296 
L 186.954634 602.722511 
L 196.138354 616.16934 
L 205.324506 629.61973 
L 214.513091 643.073683 
L 223.70411 656.5312 
L 232.897564 669.992283 
L 242.093454 683.456932 
L 251.291781 696.92515 
L 260.492546 710.396937 
L 269.695751 723.872296 
L 177.670677 616.16934 
L 186.854383 629.61973 
L 196.040522 643.073683 
L 223.613543 683.456932 
L 232.809422 696.92515 
L 242.007738 710.396937 
L 251.208492 723.872296 
L 168.384261 629.61973 
L 177.567954 643.073683 
L 186.754079 656.5312 
L 205.133633 683.456932 
L 214.327062 696.92515 
L 223.522929 710.396937 
L 232.721233 723.872296 
L 159.095385 643.073683 
L 168.279064 656.5312 
L 177.465176 669.992283 
L 186.653722 683.456932 
L 195.844703 696.92515 
L 205.03812 710.396937 
L 214.233974 723.872296 
L 149.804049 656.5312 
L 158.987713 669.992283 
L 168.173811 683.456932 
L 177.362343 696.92515 
L 186.553311 710.396937 
L 195.746715 723.872296 
L 140.51025 669.992283 
L 149.6939 683.456932 
L 158.879984 696.92515 
L 168.068502 710.396937 
L 177.259457 723.872296 
L 131.21399 683.456932 
L 140.397625 696.92515 
L 149.583694 710.396937 
L 158.772198 723.872296 
L 121.915265 696.92515 
L 131.098885 710.396937 
L 140.284939 723.872296 
L 112.614076 710.396937 
L 121.79768 723.872296 
L 103.310421 723.872296 
" clip-path="url(#p4e7660e423)" style="fill: none; stroke: #1f77b4; stroke-width: 0.4"/>
    <path d="M 288.916167 455.04203 
L 279.659192 468.449778 
L 288.843026 481.861073 
L 270.399768 481.861073 
L 279.583592 495.275914 
L 288.769846 508.694304 
L 261.137895 495.275914 
L 270.321709 508.694304 
L 279.507953 522.116244 
L 288.696627 535.541735 
L 251.873573 508.694304 
L 261.057376 522.116244 
L 270.243609 535.541735 
L 279.432274 548.970779 
L 288.62337 562.403377 
L 242.6068 522.116244 
L 251.790592 535.541735 
L 260.976814 548.970779 
L 270.165468 562.403377 
L 279.356554 575.839531 
L 288.550073 589.279242 
L 233.337574 535.541735 
L 242.521355 548.970779 
L 251.707567 562.403377 
L 260.89621 575.839531 
L 270.087286 589.279242 
L 279.280795 602.722511 
L 224.065896 548.970779 
L 233.249665 562.403377 
L 242.435866 575.839531 
L 251.624498 589.279242 
L 260.815563 602.722511 
L 270.009062 616.16934 
L 279.204995 629.61973 
L 288.403365 643.073683 
L 214.791764 562.403377 
L 223.975521 575.839531 
L 233.16171 589.279242 
L 242.350331 602.722511 
L 251.541385 616.16934 
L 260.734873 629.61973 
L 269.930796 643.073683 
L 279.129155 656.5312 
L 288.329952 669.992283 
L 205.515177 575.839531 
L 214.698922 589.279242 
L 223.885099 602.722511 
L 233.073708 616.16934 
L 242.26475 629.61973 
L 251.458228 643.073683 
L 260.65414 656.5312 
L 269.852489 669.992283 
L 279.053275 683.456932 
L 288.2565 696.92515 
L 196.236134 589.279242 
L 205.419867 602.722511 
L 214.606031 616.16934 
L 223.794628 629.61973 
L 232.985659 643.073683 
L 242.179125 656.5312 
L 251.375026 669.992283 
L 260.573365 683.456932 
L 269.774141 696.92515 
L 278.977355 710.396937 
L 288.18301 723.872296 
L 186.954634 602.722511 
L 196.138354 616.16934 
L 205.324506 629.61973 
L 214.513091 643.073683 
L 223.70411 656.5312 
L 232.897564 669.992283 
L 242.093454 683.456932 
L 251.291781 696.92515 
L 260.492546 710.396937 
L 269.695751 723.872296 
L 177.670677 616.16934 
L 186.854383 629.61973 
L 196.040522 643.073683 
L 223.613543 683.456932 
L 232.809422 696.92515 
L 242.007738 710.396937 
L 251.208492 723.872296 
L 168.384261 629.61973 
L 177.567954 643.073683 
L 186.754079 656.5312 
L 205.133633 683.456932 
L 214.327062 696.92515 
L 223.522929 710.396937 
L 232.721233 723.872296 
L 159.095385 643.073683 
L 168.279064 656.5312 
L 177.465176 669.992283 
L 186.653722 683.456932 
L 195.844703 696.92515 
L 205.03812 710.396937 
L 214.233974 723.872296 
L 149.804049 656.5312 
L 158.987713 669.992283 
L 168.173811 683.456932 
L 177.362343 696.92515 
L 186.553311 710.396937 
L 195.746715 723.872296 
L 140.51025 669.992283 
L 149.6939 683.456932 
L 158.879984 696.92515 
L 168.068502 710.396937 
L 177.259457 723.872296 
L 131.21399 683.456932 
L 140.397625 696.92515 
L 149.583694 710.396937 
L 158.772198 723.872296 
L 121.915265 696.92515 
L 131.098885 710.396937 
L 140.284939 723.872296 
L 112.614076 710.396937 
L 121.79768 723.872296 
L 103.310421 723.872296 
" clip-path="url(#p4e7660e423)" style="fill: none; stroke: #1f77b4; stroke-width: 0.4"/>
    <path d="M 288.916167 455.04203 
L 288.916167 455.04203 
" clip-path="url(#p4e7660e423)" style="fill: none; stroke: #1f77b4; stroke-width: 0.4"/>
    <path d="M 270.399768 481.861073 
L 270.399768 481.861073 
" clip-path="url(#p4e7660e423)" style="fill: none; stroke: #1f77b4; stroke-width: 0.4"/>
    <path d="M 261.137895 495.275914 
L 261.137895 495.275914 
" clip-path="url(#p4e7660e423)" style="fill: none; stroke: #1f77b4; stroke-width: 0.4"/>
    <path d="M 288.696627 535.541735 
L 288.696627 535.541735 
" clip-path="url(#p4e7660e423)" style="fill: none; stroke: #1f77b4; stroke-width: 0.4"/>
    <path d="M 270.243609 535.541735 
L 270.243609 535.541735 
" clip-path="url(#p4e7660e423)" style="fill: none; stroke: #1f77b4; stroke-width: 0.4"/>
    <path d="M 242.6068 522.116244 
L 242.6068 522.116244 
" clip-path="url(#p4e7660e423)" style="fill: none; stroke: #1f77b4; stroke-width: 0.4"/>
    <path d="M 270.165468 562.403377 
L 270.165468 562.403377 
" clip-path="url(#p4e7660e423)" style="fill: none; stroke: #1f77b4; stroke-width: 0.4"/>
    <path d="M 233.337574 535.541735 
L 233.337574 535.541735 
" clip-path="url(#p4e7660e423)" style="fill: none; stroke: #1f77b4; stroke-width: 0.4"/>
    <path d="M 260.89621 575.839531 
L 260.89621 575.839531 
" clip-path="url(#p4e7660e423)" style="fill: none; stroke: #1f77b4; stroke-width: 0.4"/>
    <path d="M 224.065896 548.970779 
L 224.065896 548.970779 
" clip-path="url(#p4e7660e423)" style="fill: none; stroke: #1f77b4; stroke-width: 0.4"/>
    <path d="M 251.624498 589.279242 
L 251.624498 589.279242 
" clip-path="url(#p4e7660e423)" style="fill: none; stroke: #1f77b4; stroke-width: 0.4"/>
    <path d="M 279.204995 629.61973 
L 279.204995 629.61973 
" clip-path="url(#p4e7660e423)" style="fill: none; stroke: #1f77b4; stroke-width: 0.4"/>
    <path d="M 223.975521 575.839531 
L 223.975521 575.839531 
" clip-path="url(#p4e7660e423)" style="fill: none; stroke: #1f77b4; stroke-width: 0.4"/>
    <path d="M 251.541385 616.16934 
L 251.541385 616.16934 
" clip-path="url(#p4e7660e423)" style="fill: none; stroke: #1f77b4; stroke-width: 0.4"/>
    <path d="M 279.129155 656.5312 
L 279.129155 656.5312 
" clip-path="url(#p4e7660e423)" style="fill: none; stroke: #1f77b4; stroke-width: 0.4"/>
    <path d="M 214.698922 589.279242 
L 214.698922 589.279242 
" clip-path="url(#p4e7660e423)" style="fill: none; stroke: #1f77b4; stroke-width: 0.4"/>
    <path d="M 242.26475 629.61973 
L 242.26475 629.61973 
" clip-path="url(#p4e7660e423)" style="fill: none; stroke: #1f77b4; stroke-width: 0.4"/>
    <path d="M 269.852489 669.992283 
L 269.852489 669.992283 
" clip-path="url(#p4e7660e423)" style="fill: none; stroke: #1f77b4; stroke-width: 0.4"/>
    <path d="M 196.236134 589.279242 
L 196.236134 589.279242 
" clip-path="url(#p4e7660e423)" style="fill: none; stroke: #1f77b4; stroke-width: 0.4"/>
    <path d="M 223.794628 629.61973 
L 223.794628 629.61973 
" clip-path="url(#p4e7660e423)" style="fill: none; stroke: #1f77b4; stroke-width: 0.4"/>
    <path d="M 251.375026 669.992283 
L 251.375026 669.992283 
" clip-path="url(#p4e7660e423)" style="fill: none; stroke: #1f77b4; stroke-width: 0.4"/>
    <path d="M 278.977355 710.396937 
L 278.977355 710.396937 
" clip-path="url(#p4e7660e423)" style="fill: none; stroke: #1f77b4; stroke-width: 0.4"/>
    <path d="M 196.138354 616.16934 
L 196.138354 616.16934 
" clip-path="url(#p4e7660e423)" style="fill: none; stroke: #1f77b4; stroke-width: 0.4"/>
    <path d="M 223.70411 656.5312 
L 223.70411 656.5312 
" clip-path="url(#p4e7660e423)" style="fill: none; stroke: #1f77b4; stroke-width: 0.4"/>
    <path d="M 251.291781 696.92515 
L 251.291781 696.92515 
" clip-path="url(#p4e7660e423)" style="fill: none; stroke: #1f77b4; stroke-width: 0.4"/>
    <path d="M 177.670677 616.16934 
L 177.670677 616.16934 
" clip-path="url(#p4e7660e423)" style="fill: none; stroke: #1f77b4; stroke-width: 0.4"/>
    <path d="M 223.613543 683.456932 
L 223.613543 683.456932 
" clip-path="url(#p4e7660e423)" style="fill: none; stroke: #1f77b4; stroke-width: 0.4"/>
    <path d="M 251.208492 723.872296 
L 251.208492 723.872296 
" clip-path="url(#p4e7660e423)" style="fill: none; stroke: #1f77b4; stroke-width: 0.4"/>
    <path d="M 186.754079 656.5312 
L 186.754079 656.5312 
" clip-path="url(#p4e7660e423)" style="fill: none; stroke: #1f77b4; stroke-width: 0.4"/>
    <path d="M 223.522929 710.396937 
L 223.522929 710.396937 
" clip-path="url(#p4e7660e423)" style="fill: none; stroke: #1f77b4; stroke-width: 0.4"/>
    <path d="M 168.279064 656.5312 
L 168.279064 656.5312 
" clip-path="url(#p4e7660e423)" style="fill: none; stroke: #1f77b4; stroke-width: 0.4"/>
    <path d="M 195.844703 696.92515 
L 195.844703 696.92515 
" clip-path="url(#p4e7660e423)" style="fill: none; stroke: #1f77b4; stroke-width: 0.4"/>
    <path d="M 149.804049 656.5312 
L 149.804049 656.5312 
" clip-path="url(#p4e7660e423)" style="fill: none; stroke: #1f77b4; stroke-width: 0.4"/>
    <path d="M 177.362343 696.92515 
L 177.362343 696.92515 
" clip-path="url(#p4e7660e423)" style="fill: none; stroke: #1f77b4; stroke-width: 0.4"/>
    <path d="M 140.51025 669.992283 
L 140.51025 669.992283 
" clip-path="url(#p4e7660e423)" style="fill: none; stroke: #1f77b4; stroke-width: 0.4"/>
    <path d="M 168.068502 710.396937 
L 168.068502 710.396937 
" clip-path="url(#p4e7660e423)" style="fill: none; stroke: #1f77b4; stroke-width: 0.4"/>
    <path d="M 140.397625 696.92515 
L 140.397625 696.92515 
" clip-path="url(#p4e7660e423)" style="fill: none; stroke: #1f77b4; stroke-width: 0.4"/>
    <path d="M 121.915265 696.92515 
L 121.915265 696.92515 
" clip-path="url(#p4e7660e423)" style="fill: none; stroke: #1f77b4; stroke-width: 0.4"/>
    <path d="M 112.614076 710.396937 
L 112.614076 710.396937 
" clip-path="url(#p4e7660e423)" style="fill: none; stroke: #1f77b4; stroke-width: 0.4"/>
    <path d="M 103.310421 723.872296 
L 103.310421 723.872296 
" clip-path="url(#p4e7660e423)" style="fill: none; stroke: #1f77b4; stroke-width: 0.4"/>
   </g>
  </g>
 </g>
 <defs>
  <clipPath id="p4e7660e423">
   <rect x="7.2" y="7.2" width="1087.2" height="1087.2"/>
  </clipPath>
 </defs>
</svg>
